<svg xmlns="http://www.w3.org/2000/svg" viewBox="0 0 100 110">
  <defs>
    <linearGradient id="shieldEdge" x1="0" y1="0" x2="1" y2="0">
      <stop offset="0" stop-color="#b93a56"/>
      <stop offset="1" stop-color="#1e3a8a"/>
    </linearGradient>
    <path id="shield" d="M50 3
           C 38 9, 22 13, 9 13.5
           L 9 52
           C 9 78, 27 96, 50 107
           C 73 96, 91 78, 91 52
           L 91 13.5
           C 78 13, 62 9, 50 3 Z"/>
  </defs>
  <!-- 방패: 그라데이션 링 + 흰 내부 (fill 방식 — 모든 렌더러 호환) -->
  <use href="#shield" fill="url(#shieldEdge)"/>
  <use href="#shield" fill="#ffffff" transform="translate(50,55) scale(0.958) translate(-50,-55)"/>
  <!-- 마크: 상단 빨강 / 하단 파랑 평행사변형, 중앙 흰 라운드 노치로 맞물림 -->
  <polygon points="37,26 79,26 57,55 15,55" fill="#e0405a"/>
  <polygon points="43,47 85,47 63,76 21,76" fill="#1e3d8f"/>
  <g transform="translate(50,51) skewX(-28)">
    <rect x="-7.6" y="-7.6" width="15.2" height="15.2" rx="4.6" fill="#ffffff"/>
  </g>
</svg>
